/* XPM */
static char *e36d5edf059142c9dac69bbd305b9adeD1yqxRfPQ7g2Yzyr[] = {
/* columns rows colors chars-per-pixel */
"123 126 7 1 ",
"  c #47704C",
". c #7A4808",
"X c #6B5500",
"o c None",
"O c #C7780F",
"+ c #7C4A09",
"@ c #A5630C",
/* pixels */
"                                                                                                        X..................",
"                                                                                                        X++++++++++++++++++",
"                                                                                                        X++++++++++++++++++",
"                                                                                                        X+++@@@@@@@@@@@@+++",
"                                                                                          XXXXXXXXXXXXX X+++OOOOOOOOOOOO+++",
"                                                                                                        X+++OOOOOOOOOOOO+++",
"                                                                                         X...............+++OOOOOOOOOOOO+++",
"                                                                                        XXo+++++++++++++++++OOOOOOOOOOOO+++",
"                                                                                         Xo+++++++++++++++++OOOOOOOOOOOO+++",
"                                                                                        XXo++@@@@@@@@@@@@+++OOOOOOOOOOOO+++",
"                                                                           XXXXXXXXXXXXX Xo++OOOOOOOOOOOO+++OOOOOOOOOOOO+++",
"                                                                                        XXo++OOOOOOOOOOOO+++OOOOOOOOOOOO+++",
"                                                                           .o.............+++OOOOOOOOOOOO+++OOOOOOOOOOOO+++",
"                                                                           o+++++++++++++++++OOOOOOOOOOOO+++OOOOOOOOOOOO+++",
"                                                                           o+++++++++++++++++OOOOOOOOOOOO+++OOOOOOOOOOOO+++",
"                                                                          Xo++@O@@O@@@O@@@+++OOOOOOOOOOOO+++OOOOOOOOOOOO+++",
"                                                            XXXXXXXXXXXXXXXo++OOOOOOOOOOOO+++OOOOOOOOOOOO+++OOOOOOOOOOOO+++",
"                                                                          Xo++OOOOOOOOOOOO+++OOOOOOOOOOOO+++OOOOOOOOOOOO+++",
"                                                            .o............o+++OOOOOOOOOOOO+++OOOOOOOOOOOO+++OOOOOOOOOOOO+++",
"                                                            o+++++++++++++++++OOOOOOOOOOOO+++OOOOOOOOOOOO+++OOOOOOOOOOOO+++",
"                                                            o+++++++++++++++++@OOOOOOOOOOO+++OOOOOOOOOOOO+++OOOOOOOOOOOO+++",
"                                                           Xo++@O@O@@O@@O@@+++OOOOOOOOOOOO+++OOOOOOOOOOOO+++OOOOOOOOOOOO+++",
"                                             XXXXXXXXXXXXXX o++OOOOOOOOOOOO+++OOOOOOOOOOOO+++OOOOOOOOOOOO+++OOOOOOOOOOOO+++",
"                                                           Xo++OOOOOOOOOOOO+++OOOOOOOOOOOO+++OOOOOOOOOOOO+++OOOOOOOOOOOO+++",
"                                             .o.o.o.o.o.o.o.+++@OOOOOOOOOOO+++OOOOOOOOOOOO+++OOOOOOOOOOOO+++OOOOOOOOOOOO+++",
"                                             o+++++++++++++++++OOOOOOOOOOOO+++OOOOOOOOOOOO+++OOOOOOOOOOOO+++OOOOOOOOOOOO+++",
"                                             o+++++++++++++++++@OOOOOOOOOOO+++OOOOOOOOOOOO+++OOOOOOOOOOOO+++OOOOOOOOOOOO+++",
"                                             o++@O@@O@@O@@O@+++OOOOOOOOOOOO+++OOOOOOOOOOOO+++OOOOOOOOOOOO+++OOOOOOOOOOOO+++",
"                              XXXXXXXXXXXXXX o++OOOOOOOOOOOO+++OOOOOOOOOOOO+++OOOOOOOOOOOO+++OOOOOOOOOOOO+++OOOOOOOOOOOO+++",
"                                             o++@OOOOOOOOOOO+++OOOOOOOOOOOO+++OOOOOOOOOOOO+++OOOOOOOOOOOO+++OOOOOOOOOOOO+++",
"                            X .oooooooooooooo+++OOOOOOOOOOOO+++@OOOOOOOOOOO+++@OOOOOOOOOOO+++OOOOOOOOOOOO+++OOOOOOOOOOOO+++",
"                            X o+++++++++++++++++OOOOOOOOOOOO+++OOOOOOOOOOOO+++OOOOOOOOOOOO+++OOOOOOOOOOOO+++OOOOOOOOOOOO+++",
"                            X o+++++++++++++++++@OOOOOOOOOOO+++OOOOOOOOOOOO+++OOOOOOOOOOOO+++OOOOOOOOOOOO+++OOOOOOOOOOOO+++",
"                            X o++@O@O@O@O@O@O+++OOOOOOOOOOOO+++OOOOOOOOOOOO+++OOOOOOOOOOOO+++OOOOOOOOOOOO+++OOOOOOOOOOOO+++",
"                XXXXXXXXXXXXX o++@OOOOOOOOOOO+++@OOOOOOOOOOO+++@OOOOOOOOOOO+++OOOOOOOOOOOO+++OOOOOOOOOOOO+++OOOOOOOOOOOO+++",
"                            X o++OOOOOOOOOOOO+++OOOOOOOOOOOO+++OOOOOOOOOOOO+++OOOOOOOOOOOO+++OOOOOOOOOOOO+++OOOOOOOOOOOO+++",
"             X .oooooooooooooo+++@OOOOOOOOOOO+++@OOOOOOOOOOO+++OOOOOOOOOOOO+++OOOOOOOOOOOO+++OOOOOOOOOOOO+++OOOOOOOOOOOO+++",
"             X .+++++++++++++++++OOOOOOOOOOOO+++OOOOOOOOOOOO+++OOOOOOOOOOOO+++OOOOOOOOOOOO+++OOOOOOOOOOOO+++OOOOOOOOOOOO+++",
"             X .+++++++++++++++++@OOOOOOOOOOO+++@OOOOOOOOOOO+++@OOOOOOOOOOO+++OOOOOOOOOOOO+++OOOOOOOOOOOO+++OOOOOOOOOOOO+++",
"             X .++@O@O@O@O@O@O+++OOOOOOOOOOOO+++OOOOOOOOOOOO+++OOOOOOOOOOOO+++OOOOOOOOOOOO+++OOOOOOOOOOOO+++OOOOOOOOOOOO+++",
"             X .++@OOOOOOOOOOO+++@OOOOOOOOOOO+++@OOOOOOOOOOO+++OOOOOOOOOOOO+++@OOOOOOOOOOO+++OOOOOOOOOOOO+++OOOOOOOOOOOO+++",
"             X .++@OOOOOOOOOOO+++OOOOOOOOOOOO+++OOOOOOOOOOOO+++OOOOOOOOOOOO+++OOOOOOOOOOOO+++OOOOOOOOOOOO+++OOOOOOOOOOOO+++",
".oooooooooooooo+++@OOOOOOOOOOO@++@OOOOOOOOOOO+++@OOOOOOOOOOO+++@OOOOOOOOOOO+++OOOOOOOOOOOO+++OOOOOOOOOOOO+++OOOOOOOOOOOO+++",
".+++++++++++++++++OOOOOOOOOOOO+++OOOOOOOOOOOO+++OOOOOOOOOOOO+++OOOOOOOOOOOO+++OOOOOOOOOOOO+++OOOOOOOOOOOO+++OOOOOOOOOOOO+++",
".+++++++++++++++++@OOOOOOOOOOO+++@OOOOOOOOOOO+++@OOOOOOOOOOO+++OOOOOOOOOOOO+++OOOOOOOOOOOO+++OOOOOOOOOOOO+++OOOOOOOOOOOO+++",
".++@O@O@O@O@O@O+++@OOOOOOOOOOO+++OOOOOOOOOOOO+++OOOOOOOOOOOO+++OOOOOOOOOOOO+++OOOOOOOOOOOO+++OOOOOOOOOOOO+++OOOOOOOOOOOO+++",
".++@OOOOOOOOOOO@++@OOOOOOOOOOO@++@OOOOOOOOOOO+++@OOOOOOOOOOO+++@OOOOOOOOOOO+++OOOOOOOOOOOO+++OOOOOOOOOOOO+++OOOOOOOOOOOO+++",
".++@OOOOOOOOOOO+++OOOOOOOOOOOO+++OOOOOOOOOOOO+++OOOOOOOOOOOO+++OOOOOOOOOOOO+++OOOOOOOOOOOO+++OOOOOOOOOOOO+++OOOOOOOOOOOO+++",
".++@OOOOOOOOOOO@++@OOOOOOOOOOO+++@OOOOOOOOOOO+++@OOOOOOOOOOO+++OOOOOOOOOOOO+++OOOOOOOOOOOO+++OOOOOOOOOOOO+++OOOOOOOOOOOO+++",
".++@OOOOOOOOOOO+++@OOOOOOOOOOO+++OOOOOOOOOOOO+++OOOOOOOOOOOO+++OOOOOOOOOOOO+++OOOOOOOOOOOO+++OOOOOOOOOOOO+++OOOOOOOOOOOO+++",
".++@OOOOOOOOOOO@++@OOOOOOOOOOO@++@OOOOOOOOOOO+++@OOOOOOOOOOO+++@OOOOOOOOOOO+++@OOOOOOOOOOO+++OOOOOOOOOOOO+++OOOOOOOOOOOO+++",
".++@OOOOOOOOOOO+++OOOOOOOOOOOO+++OOOOOOOOOOOO+++OOOOOOOOOOOO+++OOOOOOOOOOOO+++OOOOOOOOOOOO+++OOOOOOOOOOOO+++OOOOOOOOOOOO+++",
".++@OOOOOOOOOOO@++@OOOOOOOOOOO+++@OOOOOOOOOOO+++@OOOOOOOOOOO+++OOOOOOOOOOOO+++OOOOOOOOOOOO+++OOOOOOOOOOOO+++OOOOOOOOOOOO+++",
".++@OOOOOOOOOOO+++@OOOOOOOOOOO+++OOOOOOOOOOOO+++OOOOOOOOOOOO+++OOOOOOOOOOOO+++OOOOOOOOOOOO+++OOOOOOOOOOOO+++OOOOOOOOOOOO+++",
".++@OOOOOOOOOOO@++@OOOOOOOOOOO@++@OOOOOOOOOOO+++@OOOOOOOOOOO+++@OOOOOOOOOOO+++OOOOOOOOOOOO+++OOOOOOOOOOOO+++OOOOOOOOOOOO+++",
".++@OOOOOOOOOOO+++OOOOOOOOOOOO+++OOOOOOOOOOOO+++OOOOOOOOOOOO+++OOOOOOOOOOOO+++OOOOOOOOOOOO+++OOOOOOOOOOOO+++OOOOOOOOOOOO+++",
".++@OOOOOOOOOOO@++@OOOOOOOOOOO+++@OOOOOOOOOOO+++@OOOOOOOOOOO+++OOOOOOOOOOOO+++OOOOOOOOOOOO+++OOOOOOOOOOOO+++OOOOOOOOOOOO+++",
".++@OOOOOOOOOOO+++@OOOOOOOOOOO+++OOOOOOOOOOOO+++OOOOOOOOOOOO+++OOOOOOOOOOOO+++OOOOOOOOOOOO+++OOOOOOOOOOOO+++OOOOOOOOOOOO+++",
".++@OOOOOOOOOOO@++@OOOOOOOOOOO@++@OOOOOOOOOOO+++@OOOOOOOOOOO+++@OOOOOOOOOOO+++OOOOOOOOOOOO+++OOOOOOOOOOOO+++OOOOOOOOOOOO+++",
".++@OOOOOOOOOOO+++OOOOOOOOOOOO+++OOOOOOOOOOOO+++OOOOOOOOOOOO+++OOOOOOOOOOOO+++OOOOOOOOOOOO+++OOOOOOOOOOOO+++OOOOOOOOOOOO+++",
".++@OOOOOOOOOOO@++@OOOOOOOOOOO+++@OOOOOOOOOOO+++@OOOOOOOOOOO+++OOOOOOOOOOOO+++@OOOOOOOOOOO+++OOOOOOOOOOOO+++OOOOOOOOOOOO+++",
".++@OOOOOOOOOOO+++@OOOOOOOOOOO+++OOOOOOOOOOOO+++OOOOOOOOOOOO+++OOOOOOOOOOOO+++OOOOOOOOOOOO+++OOOOOOOOOOOO+++OOOOOOOOOOOO+++",
".++@OOOOOOOOOOO@++@OOOOOOOOOOO@++@OOOOOOOOOOO+++@OOOOOOOOOOO+++@OOOOOOOOOOO+++OOOOOOOOOOOO+++OOOOOOOOOOOO+++OOOOOOOOOOOO+++",
".++@OOOOOOOOOOO+++OOOOOOOOOOOO+++OOOOOOOOOOOO+++OOOOOOOOOOOO+++OOOOOOOOOOOO+++OOOOOOOOOOOO+++OOOOOOOOOOOO+++OOOOOOOOOOOO+++",
".++@OOOOOOOOOOO@++@OOOOOOOOOOO+++@OOOOOOOOOOO+++@OOOOOOOOOOO+++OOOOOOOOOOOO+++OOOOOOOOOOOO+++OOOOOOOOOOOO+++OOOOOOOOOOOO+++",
".++@OOOOOOOOOOO+++@OOOOOOOOOOO+++OOOOOOOOOOOO+++OOOOOOOOOOOO+++OOOOOOOOOOOO+++OOOOOOOOOOOO+++OOOOOOOOOOOO+++OOOOOOOOOOOO+++",
".++@OOOOOOOOOOO@++@OOOOOOOOOOO@++@OOOOOOOOOOO+++@OOOOOOOOOOO+++@OOOOOOOOOOO+++OOOOOOOOOOOO+++OOOOOOOOOOOO+++OOOOOOOOOOOO+++",
".++@OOOOOOOOOOO+++OOOOOOOOOOOO+++OOOOOOOOOOOO+++OOOOOOOOOOOO+++OOOOOOOOOOOO+++OOOOOOOOOOOO+++OOOOOOOOOOOO+++OOOOOOOOOOOO+++",
".++@OOOOOOOOOOO@++@OOOOOOOOOOO+++@OOOOOOOOOOO+++@OOOOOOOOOOO+++OOOOOOOOOOOO+++OOOOOOOOOOOO+++OOOOOOOOOOOO+++OOOOOOOOOOOO+++",
".++@OOOOOOOOOOO+++@OOOOOOOOOOO+++OOOOOOOOOOOO+++OOOOOOOOOOOO+++OOOOOOOOOOOO+++OOOOOOOOOOOO+++OOOOOOOOOOOO+++OOOOOOOOOOOO+++",
".++@OOOOOOOOOOO@++@OOOOOOOOOOO@++@OOOOOOOOOOO+++@OOOOOOOOOOO+++@OOOOOOOOOOO+++@OOOOOOOOOOO+++OOOOOOOOOOOO+++OOOOOOOOOOOO+++",
".++@OOOOOOOOOOO+++OOOOOOOOOOOO+++OOOOOOOOOOOO+++OOOOOOOOOOOO+++OOOOOOOOOOOO+++OOOOOOOOOOOO+++OOOOOOOOOOOO+++OOOOOOOOOOOO+++",
".++@OOOOOOOOOOO@++@OOOOOOOOOOO+++@OOOOOOOOOOO+++@OOOOOOOOOOO+++OOOOOOOOOOOO+++OOOOOOOOOOOO+++OOOOOOOOOOOO+++OOOOOOOOOOOO+++",
".++@OOOOOOOOOOO+++@OOOOOOOOOOO+++OOOOOOOOOOOO+++OOOOOOOOOOOO+++OOOOOOOOOOOO+++OOOOOOOOOOOO+++OOOOOOOOOOOO+++OOOOOOOOOOOO+++",
".++@OOOOOOOOOOO@++@OOOOOOOOOOO@++@OOOOOOOOOOO+++@OOOOOOOOOOO+++@OOOOOOOOOOO+++OOOOOOOOOOOO+++OOOOOOOOOOOO+++OOOOOOOOOOOO+++",
".++@OOOOOOOOOOO+++OOOOOOOOOOOO+++OOOOOOOOOOOO+++OOOOOOOOOOOO+++OOOOOOOOOOOO+++OOOOOOOOOOOO+++OOOOOOOOOOOO+++OOOOOOOOOOOO+++",
".++@OOOOOOOOOOO@++@OOOOOOOOOOO+++@OOOOOOOOOOO+++@OOOOOOOOOOO+++OOOOOOOOOOOO+++OOOOOOOOOOOO+++OOOOOOOOOOOO+++OOOOOOOOOOOO+++",
".++@OOOOOOOOOOO+++@OOOOOOOOOOO+++OOOOOOOOOOOO+++OOOOOOOOOOOO+++OOOOOOOOOOOO+++OOOOOOOOOOOO+++OOOOOOOOOOOO+++OOOOOOOOOOOO+++",
".++@OOOOOOOOOOO@++@OOOOOOOOOOO@++@OOOOOOOOOOO+++@OOOOOOOOOOO+++@OOOOOOOOOOO+++OOOOOOOOOOOO+++OOOOOOOOOOOO+++OOOOOOOOOOOO+++",
".++@OOOOOOOOOOO+++OOOOOOOOOOOO+++OOOOOOOOOOOO+++OOOOOOOOOOOO+++OOOOOOOOOOOO+++OOOOOOOOOOOO+++OOOOOOOOOOOO+++OOOOOOOOOOOO+++",
".++@OOOOOOOOOOO@++@OOOOOOOOOOO+++@OOOOOOOOOOO+++@OOOOOOOOOOO+++OOOOOOOOOOOO+++@OOOOOOOOOOO+++OOOOOOOOOOOO+++OOOOOOOOOOOO+++",
".++@OOOOOOOOOOO+++@OOOOOOOOOOO+++OOOOOOOOOOOO+++OOOOOOOOOOOO+++OOOOOOOOOOOO+++OOOOOOOOOOOO+++OOOOOOOOOOOO++++++++++++++++++",
".++@OOOOOOOOOOO@++@OOOOOOOOOOO@++@OOOOOOOOOOO+++@OOOOOOOOOOO+++@OOOOOOOOOOO+++OOOOOOOOOOOO+++OOOOOOOOOOOO++++++++++++++++++",
".++@OOOOOOOOOOO+++OOOOOOOOOOOO+++OOOOOOOOOOOO+++OOOOOOOOOOOO+++OOOOOOOOOOOO+++OOOOOOOOOOOO+++OOOOOOOOOOOO++++++++++++++++++",
".++@OOOOOOOOOOO@++@OOOOOOOOOOO+++@OOOOOOOOOOO+++@OOOOOOOOOOO+++OOOOOOOOOOOO+++OOOOOOOOOOOO+++OOOOOOOOOOOO+++@@@@@@@@@@@@+++",
".++@OOOOOOOOOOO+++@OOOOOOOOOOO+++OOOOOOOOOOOO+++OOOOOOOOOOOO+++OOOOOOOOOOOO+++OOOOOOOOOOOO+++OOOOOOOOOOOO+++@@@@@@@@@@@@+++",
".++@OOOOOOOOOOO@++@OOOOOOOOOOO@++@OOOOOOOOOOO+++@OOOOOOOOOOO+++@OOOOOOOOOOO+++OOOOOOOOOOOO+++OOOOOOOOOOOO+++@@@@@@@@@@@@+++",
".++@OOOOOOOOOOO+++OOOOOOOOOOOO+++OOOOOOOOOOOO+++OOOOOOOOOOOO+++OOOOOOOOOOOO+++OOOOOOOOOOOO++++++++++++++++++@@@@@@@@@@@@+++",
".++@OOOOOOOOOOO@++@OOOOOOOOOOO+++@OOOOOOOOOOO+++@OOOOOOOOOOO+++OOOOOOOOOOOO+++OOOOOOOOOOOO++++++++++++++++++@@@@@@@@@@@@+++",
".++@OOOOOOOOOOO+++@OOOOOOOOOOO+++OOOOOOOOOOOO+++OOOOOOOOOOOO+++OOOOOOOOOOOO+++OOOOOOOOOOOO++++++++++++++++++@@@@@@@@@@@@+++",
".++@OOOOOOOOOOO@++@OOOOOOOOOOO@++@OOOOOOOOOOO+++@OOOOOOOOOOO+++@OOOOOOOOOOO+++@OOOOOOOOOOO+++@@@@@@@@@@@@@@@@@@@@@@@@@@@+++",
".++@OOOOOOOOOOO+++OOOOOOOOOOOO+++OOOOOOOOOOOO+++OOOOOOOOOOOO+++OOOOOOOOOOOO+++OOOOOOOOOOOO+++@@@@@@@@@@@@@@@@@@@@@@@@@@@+++",
".++@OOOOOOOOOOO@++@OOOOOOOOOOO+++@OOOOOOOOOOO+++@OOOOOOOOOOO+++OOOOOOOOOOOO+++OOOOOOOOOOOO+++@@@@@@@@@@@@@@@@@@@@@@@@@@@+++",
".++@OOOOOOOOOOO+++@OOOOOOOOOOO+++OOOOOOOOOOOO+++OOOOOOOOOOOO+++OOOOOOOOOOOO++++++++++++++++++@@@@@@@@@@@@@@@@@@@@@@@@@@@+++",
".++@OOOOOOOOOOO@++@OOOOOOOOOOO@++@OOOOOOOOOOO+++@OOOOOOOOOOO+++@OOOOOOOOOOO++++++++++++++++++@@@@@@@@@@@@@@@@@@@@@@@@@@@+++",
".++@OOOOOOOOOOO+++OOOOOOOOOOOO+++OOOOOOOOOOOO+++OOOOOOOOOOOO+++OOOOOOOOOOOO++++++++++++++++++@@@@@@@@@@@@@@@@@@@@@@@@@@@+++",
".++@OOOOOOOOOOO@++@OOOOOOOOOOO+++@OOOOOOOOOOO+++@OOOOOOOOOOO+++OOOOOOOOOOOO+++@@@@@@@@@@@@@@@@@@@@@@@@@@@@@@@@@@@@@@@@@@+++",
".++@OOOOOOOOOOO+++@OOOOOOOOOOO+++OOOOOOOOOOOO+++OOOOOOOOOOOO+++OOOOOOOOOOOO+++@@@@@@@@@@@@@@@@@@@@@@@@@@@@@@@@@@@+@@@@@@+++",
".++@OOOOOOOOOOO@++@OOOOOOOOOOO@++@OOOOOOOOOOO+++@OOOOOOOOOOO+++@OOOOOOOOOOO+++@@@@@@@@@@@@@@@@@@@@@@@@@@@@+@@@@@@@@@@@@@+++",
".++@OOOOOOOOOOO+++OOOOOOOOOOOO+++OOOOOOOOOOOO+++OOOOOOOOOOOO++++++++++++++++++@@@@@@@@@@@@@@@@@@@@@@@@@@@@@@@@@@@@@@@@@@+++",
".++@OOOOOOOOOOO@++@OOOOOOOOOOO+++@OOOOOOOOOOO+++@OOOOOOOOOOO++++++++++++++++++@@@@@@@@@@@@@@@@@+@@@@+@@@@@@@@@@@@@@@@@@@+++",
".++@OOOOOOOOOOO+++@OOOOOOOOOOO+++OOOOOOOOOOOO+++OOOOOOOOOOOO+++++++++++++++++++@@@@@@@@@@@@@@@@@@@@@@@@@@@@@@@@@@@@@@@@@+++",
".++@OOOOOOOOOOO@++@OOOOOOOOOOO@++@OOOOOOOOOOO+++@OOOOOOOOOOO+++@@@@@@@@@@@@@@@@@@@@@@@@@@@@@@@@@@@@@@@@@@@@@@@@@@@@@@@@@+++",
".++@OOOOOOOOOOO+++OOOOOOOOOOOO+++OOOOOOOOOOOO+++OOOOOOOOOOOO+++@@@@@@@@@@@@@@@@@@@@@@@@@@@@@@@@@@@@@@@@@@@@@@@@@@@@@@@@@+++",
".++@OOOOOOOOOOO@++@OOOOOOOOOOO+++@OOOOOOOOOOO+++@OOOOOOOOOOO+++@@@@@@@@@@@@@@@@@@@@@@@+@@@@@@@@@@@@@@@@@@@@@@@@@@@@@@@@@+++",
".++@OOOOOOOOOOO+++@OOOOOOOOOOO+++OOOOOOOOOOOO++++++++++++++++++@@@@@@@@@@@@@@@@@@@@@@@@@@@+@@@@@@@@@@@@@@@@@@@@@+@@@@@@@+++",
".++@OOOOOOOOOOO@++@OOOOOOOOOOO@++@OOOOOOOOOOO@+++++++++++++++++@@@@@@@@@@@@@@@@@@@@@@@@@@@@@@@@@@@@@@@@@@@@@@@@@@@@@@@@@+++",
".++@OOOOOOOOOOO+++OOOOOOOOOOOO+++OOOOOOOOOOOO+++++++++++++++++++@@@@@@@@@@@@@@@@@@@@@@@@@@@@@@@@@@@@@@@@@@@+@@@@@@@@@@@@+++",
".++@OOOOOOOOOOO@++@OOOOOOOOOOO+++@OOOOOOOOOOO+++@@@@@@@@@@@@@@@@@@@@@@@@@@@@@@@@@@@@@@@@@@@@@@@@@@@@@+@@@@@@@@@@@@@@@@@@+++",
".++@OOOOOOOOOOO+++@OOOOOOOOOOO+++OOOOOOOOOOOO+++@@@@@@@@@@@@@@@@@@@@@@@@@@@@@@@@@@+@@@@@@@@@@@@@+@@@@@@@@@@@@@@@@@@@@@@@+++",
".++@OOOOOOOOOOO@++@OOOOOOOOOOO@++@OOOOOOOOOOO+++@@@@@@@@@@@@@@@@@@@@@@@@@+@@@@@@@@@@@@@@@@@@@@@@@@@@@@@@@@@@@@@@@@@@@@@@+++",
".++@OOOOOOOOOOO+++OOOOOOOOOOOO+++++++++++++++++++@@@@@@@@@@@@@@@@@@@@@@@@@@@@@@@@@@@@@@@@@@@@@@@@@@@@@@@@@@@@@@@@@@@@@@@+++",
".++@OOOOOOOOOOO@++@OOOOOOOOOOO++++++++++++++++++@@@@@@@@@@@@@@@@@@@@+@@@@@@@@@@@@@@@@@@@@@@@@@@@@@@@@@@@@@@@@@@@@@@+@@@@+++",
".++@OOOOOOOOOOO+++@OOOOOOOOOOO++++++++++++++++++@@@@@@@@@@@@@@@@@@@@@@@@@@@@@@@@@@@@@@@@@@@@@@@@@@@@@@@@@@@@@@@@@@@@@@@@+++",
".++@OOOOOOOOOOO@++@OOOOOOOOOOO@++@@@@@@@@@@@@@@@@@@@@@@@@@@@@@@@@@@@@@@@@@@@@@+@@@@@@@@+@@@@@@@@@@@@@@@@@@@@@@+@@@@@@@@@+++",
".++@OOOOOOOOOOO+++OOOOOOOOOOOO+++@@@@@@@@@@@@@@@@@@@@@@@@@@@@@@@@@@@@@@@@@@@@@@@@@@@@@@@@@@@+@@@@@@@@@@@+@@@@@@@@@@@@@@@+++",
".++@OOOOOOOOOOO@++@OOOOOOOOOOO+++@@@@@@@@@@@@@@@@@@@@@@@@@@@@@+@@@@@@@@@@@@@@@@@@@@@@@@@@@@@@@@@@@@@@@@@@@@@@@@@@@@@@@@@+++",
".++@OOOOOOOOOOO+++++++++++++++++++@@@@@@@@@@@@@@@@@@@@@@@+@@@@@@@@@@@@@@@@@@@@@@@@@@@@@@@@@@@@@@@@+@@@@@@@@@@@@@@@@@@@@@+++",
".++@OOOOOOOOOOO@+++++++++++++++++@@@@@@@@@@@@@@@@@@@@@@@@@@@@@@@@@@@@@@@@@@@@@@@@@@@@@@@@@@@@@@@@@@@@@@@@@@@@@@@@@@@@@@@+++",
".++@OOOOOOOOOOO++++++++++++++++++@@@@@@@@@@@@@@@@@@@+@@@@@@@@@@@@@@@@@@@@+@@@@@@@@@@@@@@@@@@@@@@@@@@@@@@@@@@@@@@@@@@@@@@+++",
".++@OOOOOOOOOOO+++@@@@@@@@@@@@@@@@@@@@@@@@@@@@@@@@@@@@@@@@@@@@@@@@@@@@@@@@@@@@@@@@+@@@@@@@@@@@@@@@@@@@@@@@@@@@@@@@@@@@@@+++",
".++@OOOOOOOOOOO@+++@@@@@@@@@@@@@@@@@@@@@@@@@@@@@@@@@@@@@@@@@@@@@@@@@@@@@@@@@@@@@@@@@@@@@@@@@@@@@@@@@@@@@@@@@@@@@@@@@@@@@+++",
".++@OOOOOOOOOOO+++@@@@@@@@@@@@@@@@@@@+@@@+@@@+@@@@@@@@@@@@@@@@@@+@@@+@@@@@@@@+@@@@@@@@+@@@@+@@@@@@@@@+@@@+@@@+@@@+@@@@@@+++",
".++++++++++++++++++++++++++++++++++++++++++++++++++++++++++++++++++++++++++++++++++++++++++++++++++++++++++++++++++++++++++",
".++++++++++++++++++++++++++++++++++++++++++++++++++++++++++++++++++++++++++++++++++++++++++++++++++++++++++++++++++++++++++",
".++++++++++++++++++++++++++++++++++++++++++++++++++++++++++++++++++++++++++++++++++++++++++++++++++++++++++++++++++++++++++"
};
